<svg width="25" height="26" viewBox="0 0 25 26" fill="none" xmlns="http://www.w3.org/2000/svg">
<g id="&#240;&#159;&#166;&#134; icon &#34;facebook&#34;">
<path id="Vector" d="M25 18.6334C25 23.2345 22.2875 25.9775 17.7375 25.9775H16.25C15.5625 25.9775 15 25.4087 15 24.7134V17.42C15 17.0787 15.275 16.7879 15.6125 16.7879L17.8125 16.75C17.9875 16.7374 18.1375 16.611 18.175 16.434L18.6125 14.0197C18.65 13.7922 18.475 13.5773 18.2375 13.5773L15.575 13.6152C15.225 13.6152 14.95 13.3371 14.9375 12.9958L14.8875 9.89895C14.8875 9.6967 15.05 9.51975 15.2625 9.51975L18.2625 9.46918C18.475 9.46918 18.6375 9.30487 18.6375 9.08998L18.5875 6.05627C18.5875 5.84139 18.425 5.67707 18.2125 5.67707L14.8375 5.72765C12.7625 5.76557 11.1125 7.48464 11.15 9.58294L11.2125 13.059C11.225 13.413 10.95 13.6911 10.6 13.7037L9.1 13.729C8.8875 13.729 8.72501 13.8933 8.72501 14.1082L8.76251 16.5099C8.76251 16.7247 8.925 16.8891 9.1375 16.8891L10.6375 16.8638C10.9875 16.8638 11.2625 17.1419 11.275 17.4832L11.3875 24.6882C11.4 25.396 10.8375 25.9775 10.1375 25.9775H7.2625C2.7125 25.9775 0 23.2345 0 18.6208V8.04082C0 3.43973 2.7125 0.696777 7.2625 0.696777H17.7375C22.2875 0.696777 25 3.43973 25 8.04082V18.6334Z" fill="#F6F6F6"/>
</g>
</svg>
