<svg width="25" height="26" viewBox="0 0 25 26" fill="none" xmlns="http://www.w3.org/2000/svg">
<g id="&#240;&#159;&#166;&#134; icon &#34;instagram&#34;">
<path id="Vector" d="M17.7463 0.696777H7.26612C2.71385 0.696777 0 3.43973 0 8.04082V18.6208C0 23.2345 2.71385 25.9775 7.26612 25.9775H17.7338C22.2861 25.9775 25 23.2345 25 18.6334V8.04082C25.0125 3.43973 22.2986 0.696777 17.7463 0.696777ZM12.5062 18.2416C9.8299 18.2416 7.65381 16.0422 7.65381 13.3371C7.65381 10.6321 9.8299 8.43267 12.5062 8.43267C15.1826 8.43267 17.3587 10.6321 17.3587 13.3371C17.3587 16.0422 15.1826 18.2416 12.5062 18.2416ZM19.9099 6.86527C19.8474 7.01695 19.7598 7.156 19.6473 7.2824C19.5222 7.39616 19.3847 7.48464 19.2346 7.54785C19.0845 7.61105 18.9219 7.64897 18.7593 7.64897C18.4217 7.64897 18.109 7.52257 17.8714 7.2824C17.7589 7.156 17.6713 7.01695 17.6088 6.86527C17.5462 6.71358 17.5087 6.54926 17.5087 6.38493C17.5087 6.22061 17.5462 6.05628 17.6088 5.9046C17.6713 5.74028 17.7589 5.61387 17.8714 5.48747C18.159 5.19674 18.5968 5.0577 18.997 5.14618C19.0845 5.15882 19.1595 5.1841 19.2346 5.22202C19.3096 5.2473 19.3847 5.28522 19.4597 5.33579C19.5222 5.37371 19.5848 5.43691 19.6473 5.48747C19.7598 5.61387 19.8474 5.74028 19.9099 5.9046C19.9725 6.05628 20.01 6.22061 20.01 6.38493C20.01 6.54926 19.9725 6.71358 19.9099 6.86527Z" fill="#F6F6F6"/>
</g>
</svg>
