<svg width="25" height="26" viewBox="0 0 25 26" fill="none" xmlns="http://www.w3.org/2000/svg">
<g id="&#240;&#159;&#166;&#134; icon &#34;twitter&#34;">
<path id="Vector" d="M7.04587 25.9902C9.09826 26.0683 11.1436 25.6774 13.061 24.8406C14.9784 24.0037 16.7289 22.7379 18.2092 21.1179C19.6894 19.498 20.8694 17.5567 21.6792 15.4089C22.4891 13.261 22.9124 10.9502 22.9243 8.613C23.8648 7.28825 24.5632 5.76288 24.9785 4.12654C25.0095 3.99725 25.007 3.86053 24.9713 3.73282C24.9356 3.60512 24.8682 3.49188 24.7773 3.40675C24.6863 3.32162 24.5757 3.26822 24.4587 3.25298C24.3418 3.23774 24.2234 3.26132 24.1179 3.32087C23.6259 3.59046 23.0719 3.67754 22.534 3.56984C21.9962 3.46215 21.5016 3.16511 21.1199 2.72057C20.6327 2.11328 20.0433 1.62348 19.3867 1.2802C18.7301 0.936918 18.0196 0.747132 17.2974 0.722088C16.5751 0.697045 15.8558 0.837253 15.1821 1.13441C14.5083 1.43156 13.8938 1.87961 13.375 2.45201C12.6646 3.23502 12.1443 4.21388 11.8646 5.29345C11.585 6.37302 11.5554 7.51659 11.7789 8.613C7.12915 8.92895 3.93681 6.41716 1.38295 2.97332C1.30622 2.87443 1.20586 2.80311 1.09411 2.76807C0.982366 2.73302 0.864071 2.73577 0.753675 2.77598C0.643278 2.81619 0.545557 2.89211 0.472445 2.99449C0.399333 3.09686 0.353995 3.22125 0.341967 3.35246C-0.144559 6.42415 0.206403 9.59173 1.34772 12.4298C2.48903 15.2678 4.36604 17.6404 6.72664 19.2289C5.14384 21.2949 2.92111 22.5853 0.522404 22.8307C0.393894 22.8549 0.275264 22.9243 0.183116 23.0291C0.090968 23.1339 0.0299141 23.2689 0.00849876 23.4151C-0.0129166 23.5614 0.00637867 23.7116 0.063684 23.8447C0.120989 23.9779 0.213437 24.0873 0.328088 24.1577C2.41493 25.3446 4.71301 25.9715 7.04587 25.9902Z" fill="#F6F6F6"/>
</g>
</svg>
