<svg width="25" height="26" viewBox="0 0 25 26" fill="none" xmlns="http://www.w3.org/2000/svg">
<g id="&#240;&#159;&#166;&#134; icon &#34;linkedin&#34;">
<g id="Group">
<path id="Vector" d="M16.875 8.28118C15.8105 8.27748 14.7557 8.48608 13.771 8.89504C12.7863 9.304 11.891 9.9053 11.1363 10.6645C10.3817 11.4237 9.78248 12.326 9.373 13.3196C8.96352 14.3133 8.75182 15.3788 8.75 16.4553V24.7136C8.75 25.0489 8.8817 25.3704 9.11612 25.6074C9.35054 25.8445 9.66848 25.9777 10 25.9777H12.9167C13.2482 25.9777 13.5661 25.8445 13.8005 25.6074C14.035 25.3704 14.1667 25.0489 14.1667 24.7136V16.4553C14.1664 16.0724 14.2459 15.6938 14.4 15.3441C14.5542 14.9944 14.7795 14.6815 15.0612 14.4257C15.3429 14.17 15.6748 13.9771 16.0352 13.8598C16.3956 13.7424 16.7764 13.7032 17.1528 13.7446C17.8278 13.8306 18.4481 14.1641 18.8961 14.6818C19.3441 15.1996 19.5887 15.8656 19.5833 16.5536V24.7136C19.5833 25.0489 19.715 25.3704 19.9494 25.6074C20.1839 25.8445 20.5018 25.9777 20.8333 25.9777H23.75C24.0815 25.9777 24.3995 25.8445 24.6339 25.6074C24.8683 25.3704 25 25.0489 25 24.7136V16.4553C24.9982 15.3788 24.7865 14.3133 24.377 13.3196C23.9675 12.326 23.3683 11.4237 22.6137 10.6645C21.859 9.9053 20.9637 9.304 19.979 8.89504C18.9943 8.48608 17.9395 8.27748 16.875 8.28118Z" fill="#F6F6F6"/>
<path id="Vector_2" d="M5 9.54517H1.25C0.559644 9.54517 0 10.1111 0 10.8092V24.7136C0 25.4117 0.559644 25.9776 1.25 25.9776H5C5.69036 25.9776 6.25 25.4117 6.25 24.7136V10.8092C6.25 10.1111 5.69036 9.54517 5 9.54517Z" fill="#F6F6F6"/>
<path id="Vector_3" d="M3.125 7.01695C4.85089 7.01695 6.25 5.60213 6.25 3.85686C6.25 2.1116 4.85089 0.696777 3.125 0.696777C1.39911 0.696777 0 2.1116 0 3.85686C0 5.60213 1.39911 7.01695 3.125 7.01695Z" fill="#F6F6F6"/>
</g>
</g>
</svg>
