<svg width="22" height="20" viewBox="0 0 22 20" fill="none" xmlns="http://www.w3.org/2000/svg">
<g id="&#240;&#159;&#166;&#134; icon &#34;phone&#34;">
<path id="Vector" d="M15.95 18.3333C12.2075 18.3289 8.61968 16.9754 5.97335 14.5697C3.32701 12.1639 1.83816 8.90225 1.83331 5.49999C1.83331 4.48333 2.27757 3.50831 3.06835 2.78942C3.85912 2.07053 4.93165 1.66666 6.04998 1.66666C6.28679 1.66502 6.52321 1.68456 6.75581 1.72499C6.98068 1.75524 7.20174 1.80548 7.41581 1.87499C7.56637 1.92302 7.70054 2.00594 7.80504 2.11555C7.90954 2.22517 7.98076 2.35768 8.01165 2.49999L9.26748 7.49999C9.30133 7.63571 9.29725 7.77698 9.25562 7.9109C9.21399 8.04481 9.13613 8.16712 9.02915 8.26666C8.90998 8.38333 8.90081 8.39166 7.77331 8.92499C8.67622 10.7257 10.2604 12.1718 12.2375 13C12.8333 11.9667 12.8425 11.9583 12.9708 11.85C13.0803 11.7527 13.2148 11.682 13.3622 11.6441C13.5095 11.6063 13.6649 11.6026 13.8141 11.6333L19.3141 12.775C19.4657 12.807 19.6058 12.8734 19.7212 12.9682C19.8367 13.063 19.9237 13.1829 19.9741 13.3167C20.0515 13.5145 20.1098 13.718 20.1483 13.925C20.1852 14.1344 20.2036 14.3462 20.2033 14.5583C20.1864 15.5706 19.7297 16.5358 18.9328 17.243C18.1359 17.9503 17.0636 18.3422 15.95 18.3333Z" fill="#F8FBFF"/>
</g>
</svg>
